<svg width="647" height="140" viewBox="0 0 647 140" fill="none" xmlns="http://www.w3.org/2000/svg">
<path d="M37.2059 137.193L0.350999 6.44617H25.7984L49.4031 102.532H50.5439L75.7281 6.44617H98.9818L123.99 102.62H125.307L148.736 6.44617H174.359L137.416 137.193H113.987L87.8375 45.5826H86.7845L60.7229 137.193H37.2059ZM181.512 137.193V39.0891H204.59V137.193H181.512ZM193.095 25.3124C189.41 25.3124 186.251 24.0839 183.618 21.6269C180.986 19.1699 179.669 16.2156 179.669 12.7642C179.669 9.25416 180.986 6.27067 183.618 3.81367C186.251 1.35668 189.41 0.128181 193.095 0.128181C196.722 0.128181 199.852 1.35668 202.484 3.81367C205.117 6.27067 206.433 9.22491 206.433 12.6764C206.433 16.1864 205.117 19.1699 202.484 21.6269C199.852 24.0839 196.722 25.3124 193.095 25.3124ZM239.388 79.805V137.193H216.31V39.0891H238.95V55.8493H240.09C242.313 50.3503 245.794 45.9921 250.533 42.7746C255.33 39.4986 261.414 37.8606 268.785 37.8606C275.571 37.8606 281.479 39.2938 286.51 42.1603C291.541 45.0268 295.431 49.2388 298.181 54.7963C300.989 60.2953 302.393 66.9643 302.393 74.8033V137.193H279.315V78.401C279.315 71.849 277.618 66.7303 274.225 63.0448C270.832 59.3008 266.152 57.4288 260.185 57.4288C256.149 57.4288 252.551 58.3063 249.392 60.0613C246.291 61.8163 243.834 64.361 242.021 67.6955C240.266 70.9715 239.388 75.008 239.388 79.805ZM391.508 65.1508L370.536 67.3445C369.658 64.127 367.757 61.2898 364.832 58.8328C361.907 56.3173 357.783 55.0596 352.459 55.0596C347.662 55.0596 343.626 56.1125 340.35 58.2185C337.132 60.3245 335.524 63.0155 335.524 66.2915C335.524 69.158 336.577 71.5273 338.683 73.3993C340.847 75.2128 344.416 76.6753 349.388 77.7867L366.148 81.2967C375.333 83.2272 382.207 86.3862 386.77 90.7737C391.333 95.1612 393.614 100.836 393.614 107.797C393.614 113.94 391.83 119.38 388.261 124.119C384.693 128.857 379.75 132.543 373.432 135.175C367.172 137.808 359.947 139.124 351.757 139.124C339.765 139.124 330.112 136.608 322.8 131.577C315.546 126.488 311.188 119.439 309.725 110.43L332.277 108.324C333.271 112.711 335.436 116.046 338.77 118.327C342.163 120.55 346.492 121.662 351.757 121.662C357.256 121.662 361.673 120.55 365.008 118.327C368.342 116.046 370.009 113.267 370.009 109.991C370.009 104.492 365.622 100.748 356.847 98.7589L340.087 95.249C330.668 93.2015 323.707 89.8962 319.202 85.3332C314.698 80.7117 312.445 74.8325 312.445 67.6955C312.445 61.6115 314.113 56.3465 317.447 51.9006C320.782 47.4546 325.432 44.0031 331.399 41.5461C337.366 39.0891 344.269 37.8606 352.108 37.8606C363.633 37.8606 372.671 40.3468 379.223 45.3193C385.834 50.2333 389.929 56.8438 391.508 65.1508ZM453.154 39.0891V56.99H396.906V39.0891H453.154ZM410.683 15.7476H433.761V107.709C433.761 111.57 434.61 114.437 436.306 116.309C438.003 118.122 440.694 119.029 444.379 119.029C445.374 119.029 446.485 118.941 447.714 118.766C448.942 118.59 450.053 118.386 451.048 118.152L454.997 136.228C452.54 136.989 450.053 137.544 447.538 137.895C445.023 138.305 442.507 138.51 439.992 138.51C430.866 138.51 423.699 136.111 418.493 131.314C413.286 126.459 410.683 119.848 410.683 111.483V15.7476ZM503.965 139.124C494.371 139.124 486.064 137.018 479.044 132.806C472.024 128.594 466.583 122.685 462.722 115.08C458.92 107.475 457.018 98.6419 457.018 88.58C457.018 78.4595 458.92 69.5968 462.722 61.9918C466.583 54.3283 472.024 48.3906 479.044 44.1786C486.064 39.9666 494.371 37.8606 503.965 37.8606C513.559 37.8606 521.866 39.9666 528.886 44.1786C535.906 48.3906 541.346 54.3283 545.207 61.9918C549.068 69.5968 550.999 78.4595 550.999 88.58C550.999 98.6419 549.068 107.475 545.207 115.08C541.346 122.685 535.906 128.594 528.886 132.806C521.866 137.018 513.559 139.124 503.965 139.124ZM503.965 120.521C509.288 120.521 513.676 119.117 517.127 116.309C520.579 113.442 523.153 109.581 524.849 104.726C526.604 99.8704 527.482 94.4885 527.482 88.58C527.482 82.5545 526.604 77.114 524.849 72.2585C523.153 67.403 520.579 63.5713 517.127 60.7633C513.676 57.8968 509.288 56.4635 503.965 56.4635C498.758 56.4635 494.4 57.8968 490.89 60.7633C487.38 63.5713 484.747 67.403 482.992 72.2585C481.296 77.114 480.448 82.5545 480.448 88.58C480.448 94.4885 481.296 99.8704 482.992 104.726C484.747 109.581 487.38 113.442 490.89 116.309C494.4 119.117 498.758 120.521 503.965 120.521ZM583.206 79.805V137.193H560.128V39.0891H582.767V55.8493H583.908C586.131 50.3503 589.612 45.9921 594.35 42.7746C599.147 39.4986 605.231 37.8606 612.602 37.8606C619.388 37.8606 625.297 39.2938 630.328 42.1603C635.359 45.0268 639.249 49.2388 641.999 54.7963C644.807 60.2953 646.211 66.9643 646.211 74.8033V137.193H623.132V78.401C623.132 71.849 621.436 66.7303 618.043 63.0448C614.65 59.3008 609.97 57.4288 604.003 57.4288C599.966 57.4288 596.369 58.3063 593.21 60.0613C590.109 61.8163 587.652 64.361 585.839 67.6955C584.084 70.9715 583.206 75.008 583.206 79.805Z" fill="#FAFAFA"/>
</svg>
